<svg width="400" height="300" xmlns="http://www.w3.org/2000/svg">
  <defs>
    <linearGradient id="materialsGradient" x1="0%" y1="0%" x2="100%" y2="100%">
      <stop offset="0%" style="stop-color:#795548;stop-opacity:1" />
      <stop offset="25%" style="stop-color:#8D6E63;stop-opacity:1" />
      <stop offset="50%" style="stop-color:#A1887F;stop-opacity:1" />
      <stop offset="75%" style="stop-color:#BCAAA4;stop-opacity:1" />
      <stop offset="100%" style="stop-color:#D7CCC8;stop-opacity:1" />
    </linearGradient>
  </defs>
  
  <!-- 背景 -->
  <rect width="400" height="300" fill="#f8f9fa"/>
  
  <!-- 模拟热力图方块 -->
  <rect x="20" y="20" width="100" height="80" fill="#795548" rx="4"/>
  <rect x="130" y="20" width="90" height="80" fill="#8D6E63" rx="4"/>
  <rect x="230" y="20" width="150" height="80" fill="#A1887F" rx="4"/>
  
  <rect x="20" y="110" width="80" height="90" fill="#BCAAA4" rx="4"/>
  <rect x="110" y="110" width="130" height="90" fill="#D7CCC8" rx="4"/>
  <rect x="250" y="110" width="130" height="90" fill="#795548" rx="4"/>
  
  <rect x="20" y="210" width="120" height="70" fill="#8D6E63" rx="4"/>
  <rect x="150" y="210" width="100" height="70" fill="#A1887F" rx="4"/>
  <rect x="260" y="210" width="120" height="70" fill="#BCAAA4" rx="4"/>
  
  <!-- 标题 -->
  <text x="200" y="150" text-anchor="middle" font-family="Arial, sans-serif" font-size="24" font-weight="bold" fill="#333">原材料</text>
  <text x="200" y="175" text-anchor="middle" font-family="Arial, sans-serif" font-size="14" fill="#666">Materials Sector</text>
  
  <!-- 图标 -->
  <text x="30" y="55" font-family="Arial, sans-serif" font-size="20" fill="white">⛏️</text>
  <text x="140" y="55" font-family="Arial, sans-serif" font-size="16" fill="white">FCX</text>
  <text x="240" y="55" font-family="Arial, sans-serif" font-size="16" fill="white">NEM</text>
</svg>