<svg width="800" height="400" xmlns="http://www.w3.org/2000/svg">
  <defs>
    <style>
      .stock-rect { stroke: #fff; stroke-width: 1; }
      .stock-text { font-family: Arial, sans-serif; font-size: 12px; fill: #333; }
      .stock-text-white { font-family: Arial, sans-serif; font-size: 12px; fill: #fff; }
      .sector-title { font-family: Arial, sans-serif; font-size: 16px; font-weight: bold; fill: #333; }
      .positive { fill: #4CAF50; }
      .negative { fill: #F44336; }
      .neutral { fill: #FFC107; }
    </style>
  </defs>
  
  <!-- 背景 -->
  <rect width="800" height="400" fill="#f5f5f5"/>
  
  <!-- 标题 -->
  <text x="20" y="30" class="sector-title">消费品</text>
  <text x="720" y="30" class="stock-text">- 返回全景图</text>
  
  <!-- 亚马逊 -->
  <rect x="20" y="50" width="200" height="300" class="stock-rect positive"/>
  <text x="30" y="80" class="stock-text">亚马逊</text>
  <text x="30" y="100" class="stock-text">AMZN</text>
  <text x="30" y="120" class="stock-text">+1.25%</text>
  
  <!-- 特斯拉 -->
  <rect x="240" y="50" width="160" height="200" class="stock-rect positive"/>
  <text x="250" y="80" class="stock-text">特斯拉</text>
  <text x="250" y="100" class="stock-text">TSLA</text>
  <text x="250" y="120" class="stock-text">+2.15%</text>
  
  <!-- 家得宝 -->
  <rect x="420" y="50" width="120" height="120" class="stock-rect positive"/>
  <text x="430" y="80" class="stock-text">家得宝</text>
  <text x="430" y="100" class="stock-text">HD</text>
  <text x="430" y="120" class="stock-text">+0.85%</text>
  
  <!-- 麦当劳 -->
  <rect x="560" y="50" width="100" height="120" class="stock-rect positive"/>
  <text x="570" y="80" class="stock-text">麦当劳</text>
  <text x="570" y="100" class="stock-text">MCD</text>
  <text x="570" y="120" class="stock-text">+0.92%</text>
  
  <!-- 耐克 -->
  <rect x="680" y="50" width="100" height="120" class="stock-rect positive"/>
  <text x="690" y="80" class="stock-text">耐克</text>
  <text x="690" y="100" class="stock-text">NKE</text>
  <text x="690" y="120" class="stock-text">+1.18%</text>
  
  <!-- 星巴克 -->
  <rect x="420" y="190" width="120" height="80" class="stock-rect positive"/>
  <text x="430" y="210" class="stock-text">星巴克</text>
  <text x="430" y="230" class="stock-text">SBUX</text>
  <text x="430" y="250" class="stock-text">+0.75%</text>
  
  <!-- 洛威 -->
  <rect x="560" y="190" width="100" height="80" class="stock-rect positive"/>
  <text x="570" y="210" class="stock-text">洛威</text>
  <text x="570" y="230" class="stock-text">LOW</text>
  <text x="570" y="250" class="stock-text">+0.68%</text>
  
  <!-- 塔吉特 -->
  <rect x="680" y="190" width="100" height="80" class="stock-rect positive"/>
  <text x="690" y="210" class="stock-text">塔吉特</text>
  <text x="690" y="230" class="stock-text">TGT</text>
  <text x="690" y="250" class="stock-text">+0.55%</text>
  
  <!-- 宝洁 -->
  <rect x="420" y="290" width="120" height="60" class="stock-rect positive"/>
  <text x="430" y="310" class="stock-text">宝洁</text>
  <text x="430" y="330" class="stock-text">PG</text>
  <text x="430" y="345" class="stock-text">+0.42%</text>
  
  <!-- 可口可乐 -->
  <rect x="560" y="290" width="100" height="60" class="stock-rect positive"/>
  <text x="570" y="310" class="stock-text">可口可乐</text>
  <text x="570" y="330" class="stock-text">KO</text>
  <text x="570" y="345" class="stock-text">+0.38%</text>
  
  <!-- 百事可乐 -->
  <rect x="680" y="290" width="100" height="60" class="stock-rect positive"/>
  <text x="690" y="310" class="stock-text">百事可乐</text>
  <text x="690" y="330" class="stock-text">PEP</text>
  <text x="690" y="345" class="stock-text">+0.28%</text>
  
  <!-- 沃尔玛 -->
  <rect x="240" y="270" width="160" height="80" class="stock-rect positive"/>
  <text x="250" y="290" class="stock-text">沃尔玛</text>
  <text x="250" y="310" class="stock-text">WMT</text>
  <text x="250" y="330" class="stock-text">+0.65%</text>
</svg>