<svg width="800" height="400" xmlns="http://www.w3.org/2000/svg">
  <defs>
    <style>
      .stock-rect { stroke: #fff; stroke-width: 1; }
      .stock-text { font-family: Arial, sans-serif; font-size: 12px; fill: #333; }
      .stock-text-white { font-family: Arial, sans-serif; font-size: 12px; fill: #fff; }
      .sector-title { font-family: Arial, sans-serif; font-size: 16px; font-weight: bold; fill: #333; }
      .positive { fill: #4CAF50; }
      .negative { fill: #F44336; }
      .neutral { fill: #FFC107; }
    </style>
  </defs>
  
  <!-- 背景 -->
  <rect width="800" height="400" fill="#f5f5f5"/>
  
  <!-- 标题 -->
  <text x="20" y="30" class="sector-title">能源</text>
  <text x="720" y="30" class="stock-text">- 返回全景图</text>
  
  <!-- 埃克森美孚 -->
  <rect x="20" y="50" width="200" height="300" class="stock-rect negative"/>
  <text x="30" y="80" class="stock-text-white">埃克森美孚</text>
  <text x="30" y="100" class="stock-text-white">XOM</text>
  <text x="30" y="120" class="stock-text-white">-1.85%</text>
  
  <!-- 雪佛龙 -->
  <rect x="240" y="50" width="160" height="200" class="stock-rect negative"/>
  <text x="250" y="80" class="stock-text-white">雪佛龙</text>
  <text x="250" y="100" class="stock-text-white">CVX</text>
  <text x="250" y="120" class="stock-text-white">-1.42%</text>
  
  <!-- 康菲石油 -->
  <rect x="420" y="50" width="120" height="120" class="stock-rect negative"/>
  <text x="430" y="80" class="stock-text-white">康菲石油</text>
  <text x="430" y="100" class="stock-text-white">COP</text>
  <text x="430" y="120" class="stock-text-white">-0.95%</text>
  
  <!-- EOG资源 -->
  <rect x="560" y="50" width="100" height="120" class="stock-rect negative"/>
  <text x="570" y="80" class="stock-text-white">EOG资源</text>
  <text x="570" y="100" class="stock-text-white">EOG</text>
  <text x="570" y="120" class="stock-text-white">-0.78%</text>
  
  <!-- 先锋自然资源 -->
  <rect x="680" y="50" width="100" height="120" class="stock-rect negative"/>
  <text x="690" y="80" class="stock-text-white">先锋自然资源</text>
  <text x="690" y="100" class="stock-text-white">PXD</text>
  <text x="690" y="120" class="stock-text-white">-1.12%</text>
  
  <!-- 马拉松石油 -->
  <rect x="420" y="190" width="120" height="80" class="stock-rect negative"/>
  <text x="430" y="210" class="stock-text-white">马拉松石油</text>
  <text x="430" y="230" class="stock-text-white">MPC</text>
  <text x="430" y="250" class="stock-text-white">-0.88%</text>
  
  <!-- 瓦莱罗能源 -->
  <rect x="560" y="190" width="100" height="80" class="stock-rect negative"/>
  <text x="570" y="210" class="stock-text-white">瓦莱罗能源</text>
  <text x="570" y="230" class="stock-text-white">VLO</text>
  <text x="570" y="250" class="stock-text-white">-0.65%</text>
  
  <!-- 菲利普66 -->
  <rect x="680" y="190" width="100" height="80" class="stock-rect negative"/>
  <text x="690" y="210" class="stock-text-white">菲利普66</text>
  <text x="690" y="230" class="stock-text-white">PSX</text>
  <text x="690" y="250" class="stock-text-white">-0.72%</text>
  
  <!-- 金德摩根 -->
  <rect x="420" y="290" width="120" height="60" class="stock-rect negative"/>
  <text x="430" y="310" class="stock-text-white">金德摩根</text>
  <text x="430" y="330" class="stock-text-white">KMI</text>
  <text x="430" y="345" class="stock-text-white">-0.45%</text>
  
  <!-- 威廉姆斯公司 -->
  <rect x="560" y="290" width="100" height="60" class="stock-rect negative"/>
  <text x="570" y="310" class="stock-text-white">威廉姆斯公司</text>
  <text x="570" y="330" class="stock-text-white">WMB</text>
  <text x="570" y="345" class="stock-text-white">-0.38%</text>
  
  <!-- 企业产品合伙 -->
  <rect x="680" y="290" width="100" height="60" class="stock-rect negative"/>
  <text x="690" y="310" class="stock-text-white">企业产品合伙</text>
  <text x="690" y="330" class="stock-text-white">EPD</text>
  <text x="690" y="345" class="stock-text-white">-0.52%</text>
  
  <!-- 斯伦贝谢 -->
  <rect x="240" y="270" width="160" height="80" class="stock-rect negative"/>
  <text x="250" y="290" class="stock-text-white">斯伦贝谢</text>
  <text x="250" y="310" class="stock-text-white">SLB</text>
  <text x="250" y="330" class="stock-text-white">-0.95%</text>
</svg>