<svg width="800" height="400" xmlns="http://www.w3.org/2000/svg">
  <defs>
    <style>
      .stock-rect { stroke: #fff; stroke-width: 1; }
      .stock-text { font-family: Arial, sans-serif; font-size: 12px; fill: #333; }
      .stock-text-white { font-family: Arial, sans-serif; font-size: 12px; fill: #fff; }
      .sector-title { font-family: Arial, sans-serif; font-size: 16px; font-weight: bold; fill: #333; }
      .positive { fill: #4CAF50; }
      .negative { fill: #F44336; }
      .neutral { fill: #FFC107; }
    </style>
  </defs>
  
  <!-- 背景 -->
  <rect width="800" height="400" fill="#f5f5f5"/>
  
  <!-- 标题 -->
  <text x="20" y="30" class="sector-title">金融服务</text>
  <text x="720" y="30" class="stock-text">- 返回全景图</text>
  
  <!-- 伯克希尔哈撒韦 -->
  <rect x="20" y="50" width="200" height="300" class="stock-rect positive"/>
  <text x="30" y="80" class="stock-text">伯克希尔哈撒韦</text>
  <text x="30" y="100" class="stock-text">BRK.B</text>
  <text x="30" y="120" class="stock-text">+0.85%</text>
  
  <!-- 摩根大通 -->
  <rect x="240" y="50" width="160" height="200" class="stock-rect positive"/>
  <text x="250" y="80" class="stock-text">摩根大通</text>
  <text x="250" y="100" class="stock-text">JPM</text>
  <text x="250" y="120" class="stock-text">+1.45%</text>
  
  <!-- 美国银行 -->
  <rect x="420" y="50" width="120" height="120" class="stock-rect positive"/>
  <text x="430" y="80" class="stock-text">美国银行</text>
  <text x="430" y="100" class="stock-text">BAC</text>
  <text x="430" y="120" class="stock-text">+0.92%</text>
  
  <!-- 富国银行 -->
  <rect x="560" y="50" width="100" height="120" class="stock-rect positive"/>
  <text x="570" y="80" class="stock-text">富国银行</text>
  <text x="570" y="100" class="stock-text">WFC</text>
  <text x="570" y="120" class="stock-text">+1.28%</text>
  
  <!-- 高盛 -->
  <rect x="680" y="50" width="100" height="120" class="stock-rect positive"/>
  <text x="690" y="80" class="stock-text">高盛</text>
  <text x="690" y="100" class="stock-text">GS</text>
  <text x="690" y="120" class="stock-text">+0.75%</text>
  
  <!-- 美国运通 -->
  <rect x="420" y="190" width="120" height="80" class="stock-rect positive"/>
  <text x="430" y="210" class="stock-text">美国运通</text>
  <text x="430" y="230" class="stock-text">AXP</text>
  <text x="430" y="250" class="stock-text">+1.15%</text>
  
  <!-- 摩根士丹利 -->
  <rect x="560" y="190" width="100" height="80" class="stock-rect positive"/>
  <text x="570" y="210" class="stock-text">摩根士丹利</text>
  <text x="570" y="230" class="stock-text">MS</text>
  <text x="570" y="250" class="stock-text">+0.88%</text>
  
  <!-- 花旗集团 -->
  <rect x="680" y="190" width="100" height="80" class="stock-rect positive"/>
  <text x="690" y="210" class="stock-text">花旗集团</text>
  <text x="690" y="230" class="stock-text">C</text>
  <text x="690" y="250" class="stock-text">+0.65%</text>
  
  <!-- 查尔斯施瓦布 -->
  <rect x="420" y="290" width="120" height="60" class="stock-rect positive"/>
  <text x="430" y="310" class="stock-text">查尔斯施瓦布</text>
  <text x="430" y="330" class="stock-text">SCHW</text>
  <text x="430" y="345" class="stock-text">+0.92%</text>
  
  <!-- 美国合众银行 -->
  <rect x="560" y="290" width="100" height="60" class="stock-rect positive"/>
  <text x="570" y="310" class="stock-text">美国合众银行</text>
  <text x="570" y="330" class="stock-text">USB</text>
  <text x="570" y="345" class="stock-text">+0.75%</text>
  
  <!-- PNC金融服务 -->
  <rect x="680" y="290" width="100" height="60" class="stock-rect positive"/>
  <text x="690" y="310" class="stock-text">PNC金融服务</text>
  <text x="690" y="330" class="stock-text">PNC</text>
  <text x="690" y="345" class="stock-text">+0.58%</text>
  
  <!-- 道富银行 -->
  <rect x="240" y="270" width="160" height="80" class="stock-rect positive"/>
  <text x="250" y="290" class="stock-text">道富银行</text>
  <text x="250" y="310" class="stock-text">STT</text>
  <text x="250" y="330" class="stock-text">+0.42%</text>
</svg>